# xmcd CD database file
#
# Track frame offsets:
#	150
#	19122
#	40041
#	60723
#	81375
#	95892
#	122220
#	139676
#	154660
#	171724
#	179090
#
# Disc length: 2634 seconds
#
# Revision: 0
# Processed by: cddbd v1.5.1PL0 Copyright (c) Steve Scherf et al.
# Submitted via: CDex 1.51
#
DISCID=9f0a480b
DTITLE=sona - song bird
DYEAR=2005
DGENRE=Pop
TTITLE0=雨に歌えば
TTITLE1=冬のヒカリ〜song bird remix〜
TTITLE2=Waltz
TTITLE3=はちみついろ〜Sunset Crusing Session〜
TTITLE4=四月
TTITLE5=コエヲキカセテ
TTITLE6=Hello good-bye
TTITLE7=かげろう
TTITLE8=ココア
TTITLE9=song bird
TTITLE10=会いたい
EXTD=YEAR: 2005
EXTT0=
EXTT1=
EXTT2=
EXTT3=
EXTT4=
EXTT5=
EXTT6=
EXTT7=
EXTT8=
EXTT9=
EXTT10=
PLAYORDER=
